
<svg version="1.1" id="Capa_1" xmlns="http://www.w3.org/2000/svg" viewBox="94.951 33.733 295.644 333.72" width="64" height="64">
  <defs>
    <style data-bx-fonts="Roboto">@import url(https://fonts.googleapis.com/css2?family=Roboto%3Aital%2Cwght%400%2C100%3B0%2C300%3B0%2C400%3B0%2C500%3B0%2C700%3B0%2C900%3B1%2C100%3B1%2C300%3B1%2C400%3B1%2C500%3B1%2C700%3B1%2C900&amp;display=swap);</style>
  </defs>
  <g transform="matrix(1, 0, 0, 1, 8.041471, 46.18185)">
    <path class="st0" d="M 320.07 293.874 C 319.699 273.677 312.358 255.18 300.387 240.582 C 294.144 271.077 267.354 293.874 234.844 293.874 C 214.439 293.874 195.968 284.875 183.205 270.677 L 183.63 293.874 L 98.304 293.874 C 96.925 218.486 156.924 157.396 232.246 157.396 C 307.567 157.396 369.803 218.486 371.181 293.774 L 320.068 293.774 L 320.07 293.874 Z M 116.397 276.776 L 166.211 276.776 L 165.275 225.585 C 165.03 212.287 168.705 199.889 175.113 189.291 C 143.429 207.088 121.109 239.083 116.397 276.776 Z M 232.559 174.494 C 204.35 174.494 181.763 197.39 182.281 225.685 C 182.799 253.98 206.124 276.776 234.431 276.776 C 262.739 276.776 285.127 253.88 284.612 225.785 C 278.73 221.386 272.362 217.786 265.508 214.987 C 266.672 218.386 267.536 221.886 267.605 225.685 C 267.959 244.982 252.925 259.779 234.12 259.779 C 215.315 259.779 199.732 244.582 199.386 225.685 C 199.04 206.788 213.966 191.591 232.872 191.591 C 283.586 191.591 326.374 228.485 335.36 276.776 L 352.665 276.776 C 343.405 218.986 292.676 174.494 232.559 174.494 Z M 250.601 225.685 C 250.428 216.287 242.687 208.688 233.285 208.688 C 223.881 208.688 216.419 216.287 216.59 225.685 C 216.763 235.083 224.505 242.682 233.906 242.682 C 243.31 242.682 250.773 235.083 250.601 225.685 Z" style="fill: rgb(255, 255, 255);" transform="matrix(-0.977233, 0.212169, -0.212169, -0.977233, 511.990338, 396.330421)"></path>
  </g>
  <text style="fill: rgb(255, 255, 255); font-family: Roboto; font-size: 56.1111px; font-weight: 700; white-space: pre;" transform="matrix(0.984867, 0.112851, -0.100561, 0.877606, -49.678162, -189.041458)" x="375.086" y="362.284">z</text>
  <text style="fill: rgb(255, 255, 255); font-family: Roboto; font-size: 56.1111px; font-weight: 700; white-space: pre;" transform="matrix(1.170008, -0.357781, 0.318814, 1.042581, -243.050217, -109.730339)" x="375.086" y="362.284">z</text>
  <text style="fill: rgb(255, 255, 255); font-family: Roboto; font-size: 57.3283px; font-weight: 700; white-space: pre;" transform="matrix(1.580912, 0.29797, -0.26552, 1.408733, -256.975067, -511.354706)" x="375.086" y="362.284">z</text>
</svg>