<?xml version="1.0"?>
<svg width="500" height="500" xmlns="http://www.w3.org/2000/svg" xmlns:svg="http://www.w3.org/2000/svg" version="1.1">
 <defs>
  <style data-bx-fonts="Roboto">@import url(https://fonts.googleapis.com/css2?family=Roboto%3Aital%2Cwght%400%2C100%3B0%2C300%3B0%2C400%3B0%2C500%3B0%2C700%3B0%2C900%3B1%2C100%3B1%2C300%3B1%2C400%3B1%2C500%3B1%2C700%3B1%2C900&amp;display=swap);</style>
 </defs>
 <g class="layer">
  <title>Layer 1</title>
  <rect fill="#ffffff" height="38.29" id="svg_8" width="52" x="388.08" y="51.41"/>
  <ellipse cx="250" cy="250" fill="#ffffff" id="svg_7" rx="250" ry="250" transform="matrix(1 0 0 1 0 0)"/>
  <g id="svg_6">
   <g id="svg_1" transform="matrix(1.81384 0 0 1.7956 -29.1061 30.9968)">
    <path class="st0" d="m68.84,143.4c4.65,19.65 15.74,36.17 30.54,47.9c-0.36,-31.13 20.98,-59.09 52.75,-65.98c19.94,-4.33 39.89,0.54 55.37,11.71l-5.33,-22.57l83.39,-18.1c17.34,73.37 -28.33,145.8 -101.95,161.78c-73.61,15.98 -147.38,-30.52 -164.7,-103.79l49.95,-10.84l-0.02,-0.1zm202.66,-26.51l-48.68,10.57l11.77,49.83c3.07,12.94 2.1,25.84 -1.9,37.56c27.18,-24.12 42.21,-60.11 38.81,-97.95zm-91.81,124.61c27.57,-5.99 44.78,-33.16 38.27,-60.7c-6.51,-27.54 -34.14,-44.87 -61.8,-38.86c-27.67,6.01 -44.69,33.14 -38.22,60.49c6.68,3.04 13.67,5.21 20.95,6.49c-1.85,-3.08 -3.45,-6.31 -4.32,-10.01c-4.43,-18.78 7.11,-36.43 25.49,-40.42c18.38,-3.99 36.83,7.56 41.17,25.95c4.35,18.4 -7.01,36.42 -25.48,40.43c-49.57,10.76 -99.2,-16.22 -118.23,-61.51l-16.92,3.67c21.32,54.51 80.33,87.23 139.08,74.48zm-28.49,-46.21c2.16,9.15 11.34,14.93 20.53,12.94c9.19,-1.99 14.86,-11 12.7,-20.15c-2.16,-9.14 -11.33,-14.92 -20.53,-12.93c-9.19,1.99 -14.86,11 -12.71,20.14z" fill="rgb(0, 69, 125)" id="svg_2"/>
   </g>
   <text fill="rgb(0, 69, 125)" font-family="Roboto" font-size="56.11px" font-weight="700" id="svg_3" transform="matrix(1.7864 0.202636 -0.182402 1.57584 -210.724 -500.732)" x="352.55" y="396.23">z</text>
   <text fill="rgb(0, 69, 125)" font-family="Roboto" font-size="56.11px" font-weight="700" id="svg_4" transform="matrix(2.12221 -0.642433 0.578278 1.87206 -479.273 -240.245)" x="328.86" y="309.48">z</text>
   <text fill="rgb(0, 69, 125)" font-family="Roboto" font-size="57.33px" font-weight="700" id="svg_5" transform="matrix(2.86753 0.535036 -0.481611 2.52952 -587.719 -1074.35)" x="362.59" y="382.24">z</text>
  </g>
 </g>
</svg>